<?xml version="1.0" standalone="no"?>
<!DOCTYPE svg PUBLIC "-//W3C//DTD SVG 20010904//EN"
 "http://www.w3.org/TR/2001/REC-SVG-20010904/DTD/svg10.dtd">
<svg version="1.0" xmlns="http://www.w3.org/2000/svg"
 width="300.000000pt" height="300.000000pt" viewBox="0 0 300.000000 300.000000"
 preserveAspectRatio="xMidYMid meet">
<metadata>
Created by potrace 1.10, written by Peter Selinger 2001-2011
</metadata>
<g transform="translate(0.000000,300.000000) scale(0.100000,-0.100000)"
fill="#000000" stroke="none">
<path d="M1480 2993 c-25 -9 -1314 -745 -1332 -761 -17 -14 -18 -62 -18 -732
0 -670 1 -718 18 -732 15 -13 199 -119 1106 -636 129 -74 231 -125 246 -125
17 0 273 140 681 373 360 205 662 380 672 388 16 14 17 62 17 732 0 670 -1
718 -17 732 -26 22 -1314 755 -1338 761 -11 3 -27 3 -35 0z m68 -57 c30 -19
525 -303 712 -408 241 -135 555 -320 562 -330 4 -7 8 -322 8 -701 0 -670 -1
-688 -20 -704 -10 -9 -295 -174 -632 -367 -337 -193 -629 -361 -647 -373 -34
-21 -35 -21 -60 -2 -14 10 -312 182 -661 382 l-635 362 -3 685 c-1 377 0 695
3 706 4 19 97 77 355 222 25 14 182 104 350 200 168 96 325 186 350 200 130
73 236 135 245 143 15 14 33 11 73 -15z"/>
<path d="M1460 2829 c-33 -35 -519 -739 -545 -788 -16 -32 -16 -34 6 -57 l22
-24 557 0 c527 0 558 1 573 18 10 10 17 28 17 39 0 23 -517 784 -556 821 -33
29 -40 28 -74 -9z m328 -419 l278 -405 -283 -3 c-156 -1 -410 -1 -566 0 l-283
3 280 408 c154 224 284 406 288 405 4 -2 133 -185 286 -408z"/>
<path d="M1150 2712 c-326 -182 -798 -456 -817 -474 -56 -53 -25 -77 229 -179
178 -71 212 -82 235 -73 21 7 85 92 265 354 131 190 241 356 244 369 8 29 -6
55 -32 59 -10 1 -66 -24 -124 -56z m123 1 c-17 -21 -132 -187 -256 -370 l-227
-331 -218 88 c-119 48 -223 89 -231 92 -8 2 188 120 435 261 247 141 463 265
479 276 45 29 50 25 18 -16z"/>
<path d="M1702 2758 c-23 -23 -11 -58 56 -155 414 -607 413 -606 445 -617 23
-9 59 3 235 73 204 82 252 109 252 141 0 9 -10 26 -22 38 -21 19 -771 452
-880 508 -53 27 -69 29 -86 12z m70 -46 c35 -21 252 -146 482 -277 231 -131
413 -241 405 -244 -8 -2 -112 -43 -232 -91 l-217 -88 -149 217 c-81 119 -179
261 -216 316 -38 55 -86 124 -107 153 -21 28 -36 52 -33 52 2 0 33 -17 67 -38z"/>
<path d="M232 2107 l-22 -23 0 -502 0 -501 24 -28 24 -27 28 30 c25 27 165
272 396 693 37 68 68 133 68 146 0 38 -40 61 -247 144 -251 100 -243 98 -271
68z m486 -201 c2 -3 -88 -170 -201 -373 -112 -202 -217 -392 -232 -421 -26
-51 -56 -84 -42 -48 4 10 7 246 7 525 l0 508 232 -93 c127 -52 233 -96 236
-98z"/>
<path d="M2510 2044 c-118 -47 -225 -95 -237 -106 -13 -12 -23 -33 -23 -47 1
-15 100 -204 224 -426 240 -431 257 -454 297 -406 18 22 19 43 19 525 l0 503
-23 21 c-13 12 -27 22 -33 22 -5 0 -106 -39 -224 -86z m242 -611 c2 -209 0
-379 -3 -377 -4 2 -19 27 -34 56 -15 29 -120 219 -232 421 -113 203 -203 370
-201 373 3 2 108 46 234 97 l229 92 2 -140 c2 -77 4 -312 5 -522z"/>
<path d="M911 1896 c-16 -17 -22 -32 -18 -48 10 -36 542 -1000 570 -1030 31
-35 43 -35 74 0 28 30 560 993 569 1030 5 16 -1 31 -17 48 l-22 24 -567 0
-567 0 -22 -24z m1169 -21 c0 -2 -27 -53 -59 -112 -70 -127 -69 -125 -321
-586 -107 -196 -197 -356 -200 -356 -3 0 -93 160 -200 356 -252 461 -251 459
-321 586 -32 59 -59 110 -59 112 0 3 261 5 580 5 319 0 580 -2 580 -5z"/>
<path d="M773 1808 c-29 -32 -513 -908 -513 -928 0 -9 10 -26 22 -37 20 -18
48 -24 188 -37 91 -9 188 -19 215 -21 587 -57 677 -64 695 -55 29 16 39 40 28
69 -18 48 -538 987 -558 1009 -26 28 -51 28 -77 0z m485 -808 c71 -129 128
-237 127 -238 -2 -2 -75 4 -162 12 -240 25 -424 43 -688 67 -132 12 -241 23
-243 25 -2 1 115 214 259 473 l261 472 158 -288 c87 -158 217 -394 288 -523z"/>
<path d="M2150 1808 c-22 -24 -558 -994 -566 -1025 -3 -11 5 -28 20 -42 l24
-23 274 26 c150 15 320 31 378 37 58 5 123 12 145 14 22 2 92 9 155 15 94 9
119 15 137 32 13 12 23 29 23 38 0 20 -484 896 -513 928 -26 28 -51 28 -77 0z
m304 -477 c142 -255 256 -464 254 -466 -2 -1 -59 -7 -128 -14 -224 -20 -771
-73 -904 -87 l-70 -7 26 44 c14 24 64 114 111 199 47 85 126 229 176 320 50
91 130 238 178 327 49 89 91 158 94 155 4 -4 122 -216 263 -471z"/>
<path d="M474 737 l-26 -23 23 -27 c19 -20 577 -346 892 -521 59 -33 70 -33
96 0 20 25 21 39 21 241 l0 215 -29 29 c-16 16 -40 29 -53 29 -13 0 -212 18
-443 40 -231 22 -428 40 -437 40 -9 0 -29 -10 -44 -23z m196 -32 c91 -9 237
-23 325 -31 88 -8 223 -21 300 -27 l140 -12 3 -233 c1 -127 -1 -232 -6 -232
-4 0 -12 4 -17 9 -14 12 -816 471 -887 507 -54 27 -79 52 -40 40 9 -3 91 -12
182 -21z"/>
<path d="M1996 716 l-428 -42 -24 -27 c-24 -28 -24 -31 -24 -246 0 -214 0
-218 23 -239 13 -12 30 -22 38 -22 8 0 221 119 474 264 493 282 514 297 466
337 -29 24 -10 25 -525 -25z m519 -2 c-11 -9 -38 -25 -60 -36 -66 -34 -859
-489 -870 -499 -5 -5 -13 -9 -17 -9 -4 0 -8 103 -8 230 l0 229 33 5 c17 3 131
14 252 25 468 44 660 63 664 67 2 2 9 4 15 4 6 0 2 -8 -9 -16z"/>
</g>
</svg>
