<?xml version="1.0" standalone="no"?>
<!DOCTYPE svg PUBLIC "-//W3C//DTD SVG 20010904//EN"
 "http://www.w3.org/TR/2001/REC-SVG-20010904/DTD/svg10.dtd">
<svg version="1.0" xmlns="http://www.w3.org/2000/svg"
 width="300.000000pt" height="424.000000pt" viewBox="0 0 300.000000 424.000000"
 preserveAspectRatio="xMidYMid meet">
<metadata>
Created by potrace 1.10, written by Peter Selinger 2001-2011
</metadata>
<g transform="translate(0.000000,424.000000) scale(0.100000,-0.100000)"
fill="#000000" stroke="none">
<path d="M1573 4160 c-17 -4 -48 -17 -68 -29 -45 -26 -60 -26 -91 -2 -48 38
-125 11 -183 -65 -23 -31 -44 -47 -72 -54 -52 -14 -99 -54 -92 -79 5 -22 71
-91 85 -91 5 0 15 -6 23 -12 7 -7 29 -26 49 -42 19 -16 33 -32 31 -37 -3 -4
-276 -7 -608 -7 -707 0 -647 2 -647 -17 0 -13 80 -15 663 -15 497 0 666 3 675
12 26 26 18 0 -19 -62 -51 -87 -48 -84 -113 -100 -45 -10 -54 -16 -45 -27 6
-7 29 -13 50 -13 22 0 39 -4 39 -10 0 -5 -4 -10 -8 -10 -14 0 -94 -61 -88 -67
3 -3 19 6 36 21 54 45 58 28 5 -19 -59 -53 -52 -60 9 -10 24 19 49 35 57 35
18 1 82 94 68 99 -6 2 -18 -4 -27 -13 -11 -11 -12 -16 -4 -16 7 0 10 -4 7 -10
-3 -5 -11 -10 -16 -10 -6 0 -7 5 -3 12 5 8 2 9 -10 5 -14 -6 -14 -2 4 21 12
15 31 32 43 39 18 10 19 12 5 13 -27 0 -21 20 5 20 13 0 32 9 42 20 10 11 21
18 24 15 4 -2 20 5 37 16 16 10 42 19 57 19 16 0 26 4 22 10 -3 6 1 7 10 4 10
-4 15 -14 12 -25 -3 -10 1 -23 9 -30 8 -6 14 -19 14 -28 0 -9 4 -21 10 -27 5
-5 37 -74 70 -154 34 -80 68 -152 76 -161 8 -8 14 -18 14 -22 0 -3 16 -40 36
-83 59 -128 104 -242 104 -263 0 -10 9 -40 20 -66 11 -26 18 -50 15 -55 -2 -4
4 -25 15 -46 10 -22 19 -35 20 -29 0 5 5 4 12 -3 9 -9 8 -21 -2 -51 -9 -29
-10 -46 -1 -67 l10 -29 0 35 c-2 74 -2 74 41 -25 7 -16 15 -39 17 -50 2 -11
10 -23 18 -28 20 -11 19 -72 -2 -96 -9 -11 -20 -18 -24 -15 -4 2 -21 -9 -37
-26 -17 -16 -28 -30 -25 -30 2 0 -9 -11 -25 -25 -55 -46 -59 -23 -6 35 20 22
32 40 27 40 -24 0 -91 -93 -103 -143 l-8 -32 -1 29 c-1 28 -2 29 -15 10 -11
-15 -12 -22 -3 -33 10 -12 9 -14 -6 -8 -12 4 -20 1 -24 -11 -4 -9 -14 -22 -23
-29 -10 -7 -23 -27 -31 -45 -15 -37 -30 -52 -40 -37 -8 13 -129 -104 -129
-125 0 -9 -6 -16 -12 -16 -10 0 -9 -3 1 -9 21 -13 -8 -66 -37 -67 -12 -1 -22
2 -22 7 0 18 43 89 51 84 4 -3 11 7 15 22 4 15 11 33 16 40 5 7 7 17 3 22 -3
6 -20 -17 -38 -51 -18 -33 -36 -59 -41 -57 -5 2 -12 -6 -17 -18 -11 -29 -82
-50 -122 -35 l-29 11 26 -24 c25 -24 35 -42 16 -30 -5 3 -7 -14 -3 -44 4 -36
2 -56 -8 -68 -13 -16 -12 -17 4 -4 14 11 17 11 17 0 0 -16 6 -12 -196 -133
-82 -49 -176 -107 -209 -129 -72 -48 -188 -147 -181 -155 6 -5 17 2 104 70 57
44 94 68 106 68 3 0 1 -11 -4 -25 -10 -26 -13 -83 -9 -140 2 -17 -6 -58 -16
-93 -15 -50 -25 -66 -51 -81 -17 -10 -44 -42 -59 -70 -16 -28 -32 -51 -37 -52
-13 -2 -48 -1 -50 1 -12 9 -38 6 -38 -5 0 -7 -6 -18 -14 -24 -11 -10 -15 -9
-18 5 -2 14 -6 13 -23 -7 -20 -24 -20 -24 0 -9 20 15 20 15 0 -9 -21 -25 -85
-61 -108 -61 -8 0 -22 -9 -32 -20 -21 -23 -93 -28 -114 -7 -10 10 -11 9 -6 -5
10 -26 -17 -23 -33 3 -7 12 -11 24 -7 27 3 4 10 0 15 -8 7 -10 10 -11 10 -3 0
7 -18 24 -39 39 -44 29 -47 37 -57 149 -4 44 -15 96 -25 115 -9 19 -20 58 -23
85 -2 28 -5 51 -5 53 -1 1 -6 2 -11 2 -7 0 -8 -18 -4 -50 5 -41 4 -51 -10 -56
-15 -6 -14 -10 7 -33 20 -21 27 -43 35 -113 8 -76 15 -95 50 -151 23 -36 39
-67 36 -70 -3 -3 6 -13 20 -22 21 -14 33 -15 76 -6 28 6 62 11 75 11 13 0 71
29 130 65 109 66 129 73 140 54 14 -22 37 -1 83 75 47 80 71 103 73 69 0 -10
12 27 25 82 15 62 23 117 20 145 -5 48 12 110 38 139 19 20 21 35 4 25 -7 -4
-8 -3 -4 5 4 6 12 9 17 6 5 -4 12 1 15 9 3 9 11 16 18 16 6 0 67 41 136 90 69
50 137 95 152 102 15 7 25 15 23 18 -4 6 78 80 88 80 4 0 27 -56 27 -65 0 -4
-53 -24 -75 -28 -11 -3 -4 -3 16 -2 l36 3 -3 -147 c-1 -80 -3 -148 -4 -151 -1
-3 -1 -30 0 -60 3 -99 -13 -376 -20 -355 -4 11 -18 54 -31 95 -12 41 -24 69
-26 63 -5 -13 16 -86 46 -160 11 -29 17 -53 13 -53 -4 1 -22 14 -41 30 -19 16
-37 27 -40 24 -3 -3 9 -16 26 -30 52 -40 71 -81 75 -156 1 -37 6 -64 11 -59 5
5 3 55 -3 112 -7 62 -9 153 -6 224 4 66 7 205 7 308 l1 188 22 -14 c20 -13 21
-25 26 -178 3 -90 7 -153 8 -139 1 14 14 36 27 49 28 26 35 64 10 55 -10 -4
-15 0 -15 15 0 12 6 21 13 21 8 0 7 4 -3 10 -13 9 -13 10 0 10 9 0 11 3 4 8
-20 13 -25 42 -7 42 15 0 14 2 -2 14 -21 15 -14 53 7 40 9 -5 9 -3 -1 9 -9 12
-10 17 -2 17 7 0 10 4 6 10 -3 5 -12 7 -19 4 -10 -4 -12 2 -8 21 3 19 7 23 13
14 4 -8 11 -10 15 -6 4 3 1 13 -5 21 -8 9 -8 16 -2 20 6 4 9 19 7 34 -2 15 -1
19 1 9 9 -37 23 -3 23 56 0 34 5 80 10 102 5 22 5 44 0 49 -7 7 -33 -91 -63
-244 -7 -36 -17 -65 -22 -64 -6 1 -17 13 -25 27 -14 25 -12 37 16 147 16 66
26 120 22 120 -10 0 -13 -8 -25 -70 l-9 -45 -5 49 c-4 39 0 52 17 72 12 13 25
38 29 56 4 18 13 45 21 59 16 31 70 79 89 79 15 0 97 74 278 250 l118 115 -6
43 c-8 56 -347 875 -478 1155 -57 122 -58 129 -41 142 11 8 24 15 29 15 18 0
90 -157 135 -293 27 -81 77 -196 140 -320 54 -105 121 -248 150 -317 28 -69
69 -163 90 -210 21 -47 45 -103 54 -125 l15 -40 0 33 c1 48 -31 122 -205 473
-86 173 -158 322 -160 332 -2 11 -7 24 -12 31 -5 6 -16 34 -26 61 -10 28 -21
59 -26 70 -24 57 -38 103 -35 107 6 6 -50 123 -77 158 l-21 29 27 46 c15 25
34 49 41 52 8 2 36 -2 62 -10 26 -8 68 -18 93 -22 25 -3 90 -21 146 -40 55
-18 119 -38 142 -44 37 -10 85 -39 249 -148 28 -19 60 -47 69 -61 44 -67 116
-228 133 -299 26 -105 40 -142 68 -179 13 -18 38 -69 57 -113 18 -45 41 -92
52 -104 38 -44 3 -160 -59 -194 -12 -7 -17 -12 -11 -13 23 0 80 47 96 80 23
48 23 111 -1 142 -11 13 -33 60 -50 105 -18 45 -44 99 -58 120 -14 21 -39 86
-55 146 -27 104 -60 183 -106 257 -12 19 -22 42 -22 52 0 30 -90 96 -214 159
-175 88 -301 134 -466 169 -141 31 -127 32 -168 -15 -20 -23 -63 -62 -95 -85
-47 -35 -60 -41 -68 -29 -7 11 -9 11 -9 -4 0 -28 -56 -16 -120 26 -101 65
-235 172 -235 186 0 8 29 24 70 39 59 21 74 31 95 65 16 25 40 47 67 58 40 19
79 17 67 -3 -3 -5 2 -8 11 -6 10 2 20 -4 22 -12 4 -13 3 -13 -6 0 -9 13 -11
12 -11 -3 0 -12 -6 -17 -17 -16 -10 2 -28 -2 -40 -9 -26 -14 -28 -11 -12 21
10 21 10 21 -5 3 -9 -11 -16 -25 -16 -32 0 -6 -13 -17 -30 -24 -16 -7 -30 -16
-30 -21 0 -13 13 -11 35 5 29 20 147 66 156 60 4 -2 29 10 55 28 82 55 211 49
244 -11 27 -51 -1 -115 -62 -147 -29 -15 -31 -14 -82 25 -55 42 -92 58 -44 18
20 -16 25 -26 18 -37 -11 -17 -127 -18 -201 -1 -24 6 -87 10 -139 9 l-95 -1
100 -9 c55 -4 118 -15 140 -23 42 -15 131 -14 176 3 17 7 32 6 45 -1 19 -10
19 -10 0 11 -28 32 -7 26 34 -8 19 -17 41 -30 49 -30 11 0 10 4 -5 15 -28 21
-14 18 50 -10 31 -14 69 -25 84 -25 59 -1 279 -79 380 -135 l45 -25 378 0
c370 0 485 10 275 24 -57 4 -235 6 -394 5 l-289 -2 -63 37 c-82 48 -168 84
-222 92 -23 4 -50 10 -59 15 -9 5 -31 11 -49 14 -42 7 -70 22 -70 38 0 7 9 26
20 42 26 40 25 84 -3 126 -39 59 -107 80 -194 59z m-175 -477 c-2 -12 -14 -19
-33 -21 l-30 -3 25 20 c31 25 42 26 38 4z m82 -1847 c-1 -25 -9 -37 -45 -63
-24 -18 -46 -29 -49 -25 -10 16 17 111 32 114 53 10 62 7 62 -26z"/>
<path d="M1573 4080 c-37 -22 -58 -49 -25 -31 26 14 35 14 27 0 -14 -21 -49
-27 -75 -11 l-25 16 24 -27 c30 -33 32 -33 70 -1 60 50 62 90 4 54z"/>
<path d="M1904 3676 c-17 -8 -44 -27 -60 -42 -24 -25 -29 -38 -32 -94 -3 -59
0 -70 27 -113 41 -63 101 -91 183 -85 63 5 88 21 111 71 29 64 29 82 -2 100
-16 9 -39 17 -50 17 -24 0 -27 10 -8 29 6 6 12 15 13 19 0 4 4 15 9 25 16 37
-65 87 -140 86 -11 0 -34 -6 -51 -13z m135 -30 c57 -30 56 -40 -6 -81 -65 -43
-66 -42 49 -65 l57 -11 -11 -32 c-14 -43 -36 -67 -75 -83 -70 -30 -150 -2
-196 68 -25 37 -28 51 -24 97 3 47 9 59 40 88 32 28 44 33 87 33 28 0 63 -6
79 -14z"/>
<path d="M1950 3610 c0 -15 5 -20 18 -18 9 2 17 10 17 18 0 8 -8 16 -17 18
-13 2 -18 -3 -18 -18z"/>
<path d="M1920 3480 c-19 -17 -29 -30 -22 -30 6 0 26 13 44 30 43 38 24 38
-22 0z"/>
<path d="M454 3629 c3 -17 7 -43 7 -58 1 -19 3 -16 10 14 12 60 11 75 -7 75
-13 0 -15 -7 -10 -31z"/>
<path d="M2768 3580 c-14 -11 -28 -29 -31 -41 -5 -17 1 -14 24 14 16 19 39 38
52 40 21 4 21 4 1 6 -12 0 -33 -8 -46 -19z"/>
<path d="M2850 3592 c0 -5 9 -17 20 -27 22 -20 26 -65 9 -98 -11 -20 -13 -18
-34 23 l-22 44 -17 -32 c-20 -39 -20 -48 -1 -32 13 11 19 8 40 -14 31 -33 41
-33 60 4 22 43 19 87 -10 115 -24 25 -45 32 -45 17z"/>
<path d="M446 3504 c-7 -19 1 -34 19 -34 7 0 12 8 10 18 -2 9 -4 20 -4 25 -2
13 -19 7 -25 -9z"/>
<path d="M1088 3484 c-16 -8 -28 -20 -28 -26 0 -7 4 -7 13 0 7 7 29 18 48 26
23 10 28 15 14 15 -11 0 -32 -7 -47 -15z"/>
<path d="M1332 3458 c-12 -18 -34 -51 -48 -73 -36 -53 -65 -137 -72 -209 -4
-44 -2 -57 7 -52 6 4 11 13 10 19 -3 27 2 48 10 43 4 -3 6 -17 3 -31 -2 -14 0
-25 5 -25 5 0 15 30 22 68 16 89 57 210 82 245 14 19 18 32 11 39 -6 6 -17 -3
-30 -24z"/>
<path d="M1251 3415 c-11 -19 -25 -35 -30 -35 -16 0 -103 -122 -132 -187 -44
-96 -69 -199 -74 -303 -5 -109 6 -97 28 31 8 46 22 100 31 119 l16 35 -4 -78
c-6 -112 6 -86 20 43 9 91 17 119 46 177 20 37 41 67 47 66 6 -2 11 2 11 8 0
6 15 44 34 85 38 80 40 94 7 39z m-28 -62 c-4 -10 -25 -45 -47 -77 -22 -33
-57 -93 -78 -135 -22 -42 -36 -65 -32 -51 3 14 28 66 54 116 55 107 125 206
103 147z"/>
<path d="M970 3400 c-18 -16 -38 -30 -43 -30 -15 0 -36 -33 -37 -57 0 -12 7
-29 16 -37 8 -9 12 -20 9 -26 -9 -15 11 -12 24 4 9 11 7 15 -9 19 -51 13 -27
62 64 128 21 16 32 29 24 29 -8 0 -30 -13 -48 -30z"/>
<path d="M977 3365 c-39 -27 -46 -47 -23 -70 12 -12 16 -12 26 1 11 12 10 13
-6 7 -16 -6 -17 -5 -6 9 7 9 12 20 11 24 -3 20 2 26 14 15 11 -8 16 -5 25 14
15 32 6 31 -41 0z"/>
<path d="M470 3348 c6 -18 10 -34 10 -35 0 0 8 0 18 2 9 2 20 4 25 4 7 1 -14
24 -45 49 -16 12 -16 11 -8 -20z"/>
<path d="M1126 3372 c-3 -4 -29 -21 -60 -36 -30 -15 -63 -37 -73 -49 -15 -17
-12 -16 17 5 59 42 63 42 27 -5 -67 -87 -137 -237 -137 -292 0 -33 16 -12 28
38 20 83 76 186 147 270 37 42 64 77 62 77 -3 0 -8 -4 -11 -8z"/>
<path d="M1532 3307 c-62 -93 -84 -165 -80 -262 4 -71 8 -86 37 -128 17 -26
46 -54 64 -63 32 -15 32 -15 9 3 -21 17 -22 22 -12 71 7 41 40 122 55 140 2 2
19 0 38 -3 33 -7 37 -11 46 -56 6 -27 20 -66 31 -87 53 -95 66 -115 75 -113
13 3 11 11 -19 96 -14 39 -26 87 -26 107 0 30 -4 37 -22 40 -20 3 -24 11 -31
63 -4 33 -5 74 -2 90 4 22 2 26 -5 15 -5 -8 -10 -46 -10 -83 0 -66 -1 -68 -22
-62 -38 12 -41 21 -20 61 25 51 35 84 25 84 -20 -1 -34 -20 -52 -68 -10 -29
-26 -59 -37 -67 -10 -8 -14 -15 -7 -15 7 0 0 -26 -19 -70 -29 -66 -32 -69 -49
-54 -24 21 -43 106 -35 157 4 23 31 92 60 152 30 61 53 111 52 112 -1 1 -21
-26 -44 -60z m206 -312 c4 -45 -9 -39 -26 13 -10 30 -9 33 6 30 12 -2 18 -15
20 -43z"/>
<path d="M288 3348 c-3 -7 -1 -33 3 -59 4 -26 5 -61 3 -78 -4 -25 -2 -30 10
-25 9 3 16 17 16 30 0 13 6 34 13 45 10 17 10 23 0 26 -7 3 -13 20 -13 39 0
33 -23 49 -32 22z"/>
<path d="M723 3317 c-8 -13 3 -19 39 -20 23 -2 33 2 33 13 0 16 -62 23 -72 7z"/>
<path d="M664 3309 c-3 -5 -16 -6 -30 -3 -14 4 -24 2 -24 -5 0 -6 5 -11 10
-12 28 -3 47 -1 69 8 24 10 24 10 3 15 -12 4 -25 2 -28 -3z"/>
<path d="M2875 3279 c-4 -11 -4 -23 -1 -26 3 -4 -1 -14 -10 -24 -10 -11 -14
-25 -10 -36 6 -15 8 -15 16 -3 13 20 12 8 0 -24 -8 -21 -6 -26 6 -26 12 0 15
11 13 48 -1 26 1 62 5 80 8 36 -8 46 -19 11z"/>
<path d="M2989 3263 c-3 -72 2 -317 6 -321 3 -3 5 74 5 171 0 98 -2 177 -5
177 -3 0 -6 -12 -6 -27z"/>
<path d="M1180 3243 c-20 -45 -50 -135 -50 -152 1 -12 5 -11 20 7 l19 23 4
-28 c2 -16 5 -1 6 32 0 33 6 77 12 98 13 47 7 57 -11 20z"/>
<path d="M856 3224 c-9 -8 -16 -20 -16 -25 0 -6 -5 -7 -12 -3 -6 4 -8 3 -4 -4
3 -6 -7 -30 -23 -55 -28 -41 -38 -87 -18 -87 4 0 6 -4 3 -9 -9 -14 4 -41 20
-41 8 0 14 -7 14 -16 0 -11 6 -15 20 -11 11 3 20 1 20 -5 0 -5 5 -6 11 -2 8 4
5 10 -7 17 -69 36 -82 88 -37 153 14 21 27 46 28 56 1 9 7 23 14 32 17 21 7
21 -13 0z"/>
<path d="M1010 3188 c-16 -29 -30 -59 -31 -65 -2 -18 -2 -19 -26 -94 -21 -63
-26 -123 -21 -230 1 -38 -5 -56 -38 -107 -44 -68 -78 -83 -90 -38 -3 14 -3 29
0 35 4 5 3 12 -2 15 -16 9 -13 -62 3 -76 9 -7 24 -21 35 -31 11 -12 26 -17 37
-13 23 7 146 127 138 134 -3 3 -25 -15 -50 -40 -42 -43 -85 -67 -85 -47 0 4
14 19 31 31 17 13 41 40 53 61 22 37 23 40 9 100 -10 40 -13 87 -9 132 5 69
41 198 71 256 26 50 7 32 -25 -23z"/>
<path d="M886 3177 c-48 -63 -58 -120 -28 -157 l19 -23 0 31 c0 20 -6 33 -16
35 -12 4 -12 5 3 6 14 1 17 6 12 26 -4 14 -3 25 1 25 8 0 36 55 39 78 3 19 -3
15 -30 -21z"/>
<path d="M2746 3138 c-16 -22 -13 -38 7 -38 7 0 20 -12 29 -28 14 -23 14 -30
3 -45 -17 -24 -7 -56 22 -70 21 -9 28 -7 51 16 l26 27 -22 20 -22 21 25 37
c14 20 25 40 25 44 0 3 -25 10 -55 13 -30 4 -55 11 -55 16 0 16 -19 9 -34 -13z
m100 -29 c10 -17 -23 -46 -37 -32 -7 7 -9 19 -6 27 7 18 33 21 43 5z m0 -100
c3 -6 0 -17 -7 -25 -18 -17 -44 -2 -36 20 7 18 33 21 43 5z"/>
<path d="M240 3105 c0 -14 7 -28 15 -31 16 -7 21 -54 5 -54 -5 0 -7 -7 -4 -15
8 -20 24 -19 24 1 0 9 5 12 13 8 9 -6 9 -4 1 7 -15 18 -24 69 -13 69 5 0 9 5
9 10 0 6 -7 10 -16 10 -8 0 -12 5 -9 10 3 6 -1 10 -9 10 -10 0 -16 -9 -16 -25z"/>
<path d="M2670 3110 c0 -3 7 -15 15 -26 8 -10 15 -26 15 -35 0 -8 7 -24 15
-35 14 -18 14 -17 5 9 -5 15 -8 42 -6 60 4 29 2 33 -20 33 -13 0 -24 -3 -24
-6z"/>
<path d="M1253 3093 c-22 -8 -14 -18 17 -20 22 -2 28 1 23 12 -5 15 -18 18
-40 8z"/>
<path d="M1424 3054 c-4 -16 -10 -33 -14 -39 -4 -5 -11 -25 -15 -42 -3 -18
-11 -33 -15 -33 -5 0 -25 16 -45 35 -42 43 -45 34 -5 -18 33 -44 98 -96 120
-97 9 0 7 5 -8 16 -18 12 -22 25 -22 67 0 29 5 70 10 92 5 22 7 41 5 43 -2 3
-7 -9 -11 -24z"/>
<path d="M1184 2990 c-24 -51 -38 -113 -27 -123 8 -8 54 132 50 153 -1 8 -12
-5 -23 -30z"/>
<path d="M1258 3022 c-10 -2 -18 -10 -18 -18 0 -9 -5 -12 -11 -8 -16 9 6 -29
25 -45 9 -8 13 -18 9 -24 -3 -6 -1 -7 6 -3 7 5 9 17 5 29 l-6 22 23 -21 c36
-32 57 -40 32 -13 -12 13 -28 38 -35 54 -9 21 -19 29 -30 27z"/>
<path d="M1228 2902 c-26 -2 -35 -7 -32 -17 3 -7 -3 -19 -13 -26 -21 -16 -51
-75 -32 -63 8 5 10 -5 6 -32 -11 -72 -19 -109 -29 -121 -6 -7 -12 -27 -14 -45
-14 -112 -35 -168 -61 -168 -7 0 -13 -3 -13 -7 0 -12 -147 -79 -211 -98 -30
-9 -72 -27 -92 -40 -20 -14 -43 -25 -51 -25 -26 0 -30 -56 -6 -95 12 -19 23
-35 24 -35 2 0 3 13 3 30 0 24 -3 27 -14 19 -22 -19 -16 14 8 45 27 34 91 71
166 95 80 26 202 89 230 121 13 14 23 20 23 14 0 -22 -68 -74 -135 -103 -69
-29 -89 -51 -66 -74 8 -8 11 -7 12 4 0 10 3 9 7 -4 7 -15 15 -12 67 27 33 25
80 68 103 96 39 45 43 54 34 79 -11 31 -2 95 24 175 11 33 15 66 11 103 -5 49
-4 53 10 41 14 -11 16 -10 11 9 -4 15 2 29 18 44 27 25 61 20 49 -9 -13 -28
-18 -81 -10 -99 8 -18 11 -28 13 -50 1 -7 7 -13 12 -13 6 0 8 11 4 26 -5 18
-3 25 4 20 6 -4 8 2 5 14 -7 28 13 25 22 -2 7 -20 9 -17 12 16 6 52 -1 76 -34
117 -24 29 -33 34 -65 31z"/>
<path d="M1673 2836 c3 -7 -8 -18 -26 -24 -18 -7 -43 -22 -57 -33 -14 -11 -18
-17 -10 -13 13 7 13 6 1 -9 -25 -32 -2 -30 34 2 20 17 40 31 45 31 4 0 17 3
27 7 12 4 9 -2 -10 -20 -42 -41 -62 -107 -32 -107 9 0 15 9 15 23 0 13 6 32
14 43 13 16 14 17 12 2 -1 -10 -5 -21 -9 -24 -11 -11 -8 -26 3 -19 6 3 10 -1
10 -9 0 -8 5 -18 11 -21 15 -10 59 3 59 17 0 9 -3 9 -12 0 -18 -18 -36 -15
-48 8 -8 15 -6 24 10 40 17 17 18 21 5 26 -31 12 -13 24 32 19 40 -3 44 -2 32
10 -22 22 -111 65 -106 51z"/>
<path d="M180 2772 c0 -17 6 -33 13 -35 10 -4 10 -6 0 -6 -20 -1 -15 -29 7
-41 19 -10 20 -9 14 16 -5 21 -4 25 6 19 8 -5 11 -4 6 3 -3 6 -2 13 4 17 20
13 6 39 -27 49 -20 7 -23 4 -23 -22z"/>
<path d="M881 2772 c-7 -13 -10 -31 -8 -40 3 -13 7 -10 16 12 15 37 9 59 -8
28z"/>
<path d="M1747 2750 c-5 -21 17 -59 29 -47 4 4 -1 14 -12 23 -19 15 -19 15 1
12 28 -4 30 -32 5 -70 -21 -31 -21 -32 -1 -9 13 14 21 18 21 10 -1 -21 -24
-47 -51 -58 -15 -6 -18 -10 -8 -10 31 -2 67 37 74 80 6 34 3 44 -16 65 -27 29
-35 30 -42 4z"/>
<path d="M1834 2755 c-5 -13 -9 -13 -22 -3 -9 7 -5 -2 8 -20 21 -28 23 -36 11
-53 -7 -12 -8 -18 -2 -14 33 20 -8 -65 -45 -94 -15 -12 -21 -21 -14 -21 18 0
-29 -50 -57 -61 -15 -5 -37 -3 -67 8 -41 15 -46 15 -70 0 -18 -12 -26 -26 -26
-45 1 -25 1 -26 12 -7 14 24 28 35 47 35 11 0 11 -4 -2 -18 -21 -23 -22 -42
-2 -42 8 0 15 7 15 15 0 19 31 35 70 35 17 0 40 5 51 10 10 6 19 8 19 5 0 -10
-63 -66 -92 -81 -16 -8 -28 -19 -28 -24 0 -5 -9 -12 -20 -15 -11 -4 -53 -39
-93 -79 -68 -67 -77 -72 -120 -74 -37 -2 -48 1 -56 17 -6 11 -24 22 -40 26
-18 4 -38 19 -49 36 l-19 30 34 35 c37 39 45 84 15 84 -10 0 -33 -14 -52 -30
-19 -17 -26 -27 -14 -21 11 5 26 17 34 25 15 19 40 21 40 3 0 -22 -70 -96
-109 -116 -20 -10 -47 -19 -61 -19 -25 -1 -204 -60 -185 -61 6 -1 46 10 90 24
81 25 218 35 229 16 3 -5 22 -12 41 -15 19 -4 35 -11 35 -16 0 -18 -43 -32
-80 -27 -26 3 -43 0 -53 -10 -11 -11 -23 -13 -44 -8 l-28 9 35 7 c20 5 -29 7
-116 5 -91 -2 -158 -7 -170 -14 -15 -10 -10 -11 26 -4 79 13 201 7 251 -12 51
-19 135 -98 125 -115 -12 -18 -40 -12 -87 18 -69 45 -90 46 -145 8 -26 -17
-62 -52 -79 -77 -36 -52 -101 -99 -165 -119 -25 -8 -56 -25 -71 -38 -14 -13
-35 -23 -47 -23 -34 0 -84 24 -111 54 l-25 26 55 56 c29 31 81 77 114 101 33
25 79 68 101 97 38 48 45 52 75 49 26 -3 30 -2 19 6 -10 7 -11 11 -2 11 6 0
12 7 12 17 0 15 -1 15 -18 0 -10 -10 -26 -17 -34 -17 -9 0 -28 -14 -42 -31
-17 -19 -32 -29 -42 -25 -9 4 -12 2 -8 -5 4 -6 0 -15 -7 -20 -8 -4 -15 -13
-15 -19 -3 -23 -5 -24 -14 -10 -8 12 -10 10 -10 -10 0 -20 -2 -22 -10 -10 -8
12 -10 12 -10 -5 -1 -20 -1 -20 -17 0 -15 20 -15 20 -10 -3 4 -15 1 -22 -6
-19 -7 2 -15 17 -18 33 l-7 29 -1 -32 c0 -18 -6 -33 -11 -33 -6 0 -10 -6 -9
-12 3 -28 -1 -49 -10 -44 -5 3 -12 -1 -15 -9 -3 -8 -11 -14 -17 -13 -7 2 -15
-8 -19 -22 -5 -23 -18 -30 -77 -46 -7 -2 -13 -9 -13 -15 0 -8 5 -8 16 1 13 11
20 8 45 -20 48 -52 91 -76 148 -84 30 -4 50 -3 47 2 -6 9 29 52 43 52 4 0 18
-11 31 -25 l23 -24 -27 -59 c-14 -33 -29 -75 -32 -93 -9 -46 -28 -59 -87 -59
-68 0 -148 25 -204 64 -40 27 -48 39 -48 64 0 17 -3 34 -7 38 -5 4 -8 1 -8 -7
0 -8 -15 -19 -32 -24 -18 -6 -38 -21 -45 -34 -6 -13 -25 -30 -42 -37 -25 -11
-31 -19 -33 -46 -1 -18 -2 -47 -3 -64 -1 -17 -5 -36 -9 -42 -6 -10 9 -74 29
-124 6 -14 2 -18 -19 -18 -18 0 -26 6 -27 18 -3 48 -6 69 -13 85 -15 32 -21
18 -18 -38 3 -42 1 -55 -10 -55 -27 0 -63 24 -96 63 -17 21 -32 34 -32 27 0
-6 -8 -9 -17 -6 -30 9 -46 -8 -39 -42 12 -53 57 -76 165 -86 78 -7 76 0 -5 15
-32 6 -68 16 -79 22 -11 6 -25 10 -31 9 -5 -1 -18 14 -27 33 -19 39 -17 40 30
23 21 -8 32 -17 28 -25 -6 -16 28 -30 105 -45 62 -11 224 3 300 27 55 17 39
18 -68 5 -56 -7 -88 -7 -101 0 -22 11 -46 73 -37 96 3 8 -1 29 -10 45 -13 25
-13 33 -2 47 27 33 122 122 130 122 5 0 13 -13 19 -28 7 -20 23 -34 55 -47 26
-10 43 -23 40 -30 -9 -25 214 -35 234 -10 17 20 29 19 51 -6 20 -23 17 -39 -7
-39 -8 0 -14 -4 -14 -10 0 -17 24 -8 69 26 4 3 -14 25 -51 63 l-27 28 20 54
c11 30 25 58 30 64 17 17 9 49 -18 77 -27 28 -27 28 -4 28 28 0 93 29 104 47
4 7 16 13 26 13 15 0 47 46 41 59 -1 2 3 7 9 10 6 4 22 22 35 40 l24 32 30
-53 c16 -29 38 -74 48 -100 10 -27 23 -48 27 -48 12 0 0 37 -39 114 -19 37
-34 75 -34 83 0 30 36 6 72 -47 38 -56 43 -82 32 -151 -5 -30 -10 -36 -25 -32
-10 3 -19 0 -19 -5 0 -6 -19 -31 -42 -56 -24 -24 -56 -60 -71 -80 -16 -20 -32
-34 -37 -31 -14 9 -50 -18 -50 -37 0 -9 -5 -20 -12 -24 -8 -5 -9 0 -6 14 9 34
-8 26 -31 -14 -26 -44 -26 -47 1 -33 18 10 20 9 15 -5 -4 -10 1 -20 13 -26 29
-15 38 -13 67 21 20 22 33 29 50 24 26 -6 26 -5 14 29 l-10 24 -47 -44 c-54
-49 -64 -53 -64 -23 0 14 5 19 13 16 16 -6 77 47 77 66 0 7 18 31 40 52 22 21
40 34 40 27 0 -7 -7 -15 -16 -19 -14 -5 -15 -16 -10 -64 8 -69 3 -76 -87 -130
-63 -37 -133 -96 -125 -105 3 -3 34 15 69 39 35 25 89 59 120 76 50 28 55 34
51 60 -6 41 18 148 29 130 5 -9 6 0 3 22 -7 43 19 107 30 73 13 -43 23 -150
15 -169 -5 -11 -17 -31 -26 -45 -10 -13 -13 -22 -8 -19 34 19 185 112 185 115
0 2 -25 -8 -55 -22 -31 -13 -59 -24 -64 -24 -5 0 -12 40 -16 89 -7 88 -6 90
21 126 15 21 47 52 71 70 37 28 40 33 23 38 -12 3 -20 0 -20 -7 0 -16 -62 -76
-79 -76 -9 0 -11 8 -7 24 4 15 -3 41 -19 72 -13 26 -23 49 -22 51 4 4 95 -31
103 -40 10 -9 44 48 44 74 0 11 -4 18 -9 14 -14 -8 -52 46 -49 69 5 33 28 30
40 -6 12 -32 12 -33 18 -8 5 22 12 25 59 28 48 3 53 1 47 -15 -3 -10 3 -6 15
10 11 15 29 27 38 27 30 0 73 39 66 61 -6 17 3 24 28 20 4 0 7 9 7 21 0 12 3
18 7 15 3 -4 13 -1 21 6 20 16 15 6 -55 -96 -33 -48 -58 -97 -65 -128 -8 -35
-18 -54 -32 -59 -15 -6 -16 -9 -6 -11 8 -1 18 -1 23 0 13 2 7 -26 -9 -40 -15
-12 -16 -11 -10 9 5 13 3 22 -3 22 -6 0 -11 -6 -11 -14 0 -8 -7 -22 -16 -31
-9 -9 -13 -19 -10 -23 4 -3 11 0 15 7 5 7 13 11 19 7 16 -10 30 16 61 108 38
115 95 207 185 303 76 80 206 248 206 265 0 5 -8 8 -17 6 -15 -2 -19 6 -21 42
-2 27 -6 39 -11 31 -6 -10 -10 -9 -14 3 -3 8 1 22 9 31 9 8 11 15 4 15 -6 0
-13 -7 -16 -15z"/>
<path d="M2771 2660 c-25 -30 -37 -49 -28 -41 22 18 22 3 0 -22 -10 -11 -12
-17 -5 -13 17 10 84 115 80 124 -2 5 -23 -17 -47 -48z"/>
<path d="M186 2642 c-7 -12 7 -29 26 -29 13 0 14 4 5 19 -13 19 -23 23 -31 10z"/>
<path d="M994 2619 c-23 -25 -110 -87 -100 -71 5 8 2 10 -8 6 -9 -3 -14 -11
-13 -16 1 -6 -52 -35 -118 -64 -66 -29 -114 -53 -107 -54 7 0 22 4 32 10 10 5
34 12 53 14 73 10 245 117 272 170 17 32 14 33 -11 5z"/>
<path d="M770 2616 c0 -3 7 -12 16 -21 9 -8 13 -22 10 -31 -8 -21 -89 -56 -97
-42 -5 7 -12 7 -25 -2 -16 -9 -16 -11 -2 -6 10 3 20 0 24 -6 10 -15 69 -3 104
22 34 25 39 56 10 65 -11 3 -20 11 -20 16 0 5 -4 9 -10 9 -5 0 -10 -2 -10 -4z"/>
<path d="M2570 2611 c-14 -5 -40 -16 -59 -26 -46 -23 -143 -56 -149 -50 -3 2
1 12 9 21 8 10 -20 -1 -61 -24 -45 -25 -76 -48 -77 -59 -2 -15 -1 -14 6 2 9
19 10 18 10 -5 l1 -25 18 26 c13 20 24 26 45 23 20 -2 27 2 28 14 0 10 3 12 5
5 3 -7 12 -9 21 -6 15 6 33 -12 33 -34 0 -7 -7 -13 -15 -13 -8 0 -15 5 -15 11
0 6 -8 3 -17 -6 -16 -16 -17 -16 -29 -1 -8 11 -14 13 -19 7 -3 -6 -1 -11 5
-11 6 0 8 -4 5 -10 -3 -5 -13 -10 -21 -10 -11 0 -14 7 -10 23 4 12 -2 6 -11
-13 -10 -19 -22 -38 -28 -42 -6 -5 -6 -8 2 -8 7 0 17 8 22 18 8 13 13 14 19 5
6 -10 39 -2 137 31 141 49 178 74 157 106 -17 27 -16 29 21 45 35 15 12 19
-33 6z m0 -67 c0 -13 -5 -24 -11 -24 -6 0 -8 7 -4 18 4 12 0 11 -15 -6 -24
-26 -67 -45 -81 -36 -5 3 -9 0 -9 -6 0 -6 -10 -10 -22 -8 -34 5 -31 43 2 44
14 0 46 11 70 25 51 29 70 27 70 -7z"/>
<path d="M2664 2578 c-22 -24 -65 -72 -95 -108 -29 -36 -56 -67 -59 -70 -3 -3
-29 -35 -58 -71 -28 -37 -63 -74 -76 -83 -60 -39 -98 -55 -165 -71 -41 -11
-67 -21 -60 -25 8 -6 5 -11 -11 -20 -52 -28 -6 -16 95 25 61 25 117 45 126 45
8 0 53 48 99 108 47 59 118 145 159 192 105 120 105 120 95 120 -6 0 -28 -19
-50 -42z"/>
<path d="M2984 2564 c-4 -14 -2 -30 5 -37 8 -8 11 -1 11 26 0 43 -7 48 -16 11z"/>
<path d="M1853 2502 c-68 -74 -129 -173 -116 -186 3 -3 -1 -14 -9 -23 -16 -19
-31 -66 -19 -58 4 2 15 23 25 47 34 82 57 123 92 163 36 41 106 135 101 135
-2 0 -35 -35 -74 -78z"/>
<path d="M933 2522 c-35 -26 -102 -71 -150 -100 -108 -65 -215 -165 -254 -235
l-29 -52 0 43 c0 29 8 54 23 77 29 43 101 106 147 130 51 27 18 31 -36 5 -79
-39 -169 -173 -158 -236 3 -16 19 -42 35 -59 30 -30 30 -30 19 -4 -24 53 57
155 160 204 30 14 47 23 37 20 -50 -14 -67 -16 -67 -8 0 21 72 66 131 83 33
10 43 2 27 -18 -7 -8 19 5 57 28 90 55 122 80 103 80 -8 0 -41 -20 -72 -45
-70 -54 -87 -57 -49 -10 15 19 34 35 42 35 13 0 74 63 94 97 11 18 11 18 -60
-35z"/>
<path d="M1186 2531 c-9 -16 -16 -36 -16 -43 1 -7 10 5 21 26 16 30 23 36 30
25 11 -18 5 -41 -28 -104 -36 -70 -51 -85 -110 -111 -29 -13 -53 -26 -53 -28
0 -7 104 35 138 56 19 12 32 27 30 37 -1 9 8 37 20 63 13 26 22 60 20 75 -4
39 -33 42 -52 4z"/>
<path d="M346 2481 c-9 -10 -17 -29 -18 -42 -2 -30 22 -80 34 -73 5 3 15 0 23
-6 11 -9 15 -9 15 -1 0 6 13 10 30 9 17 -1 30 -7 30 -13 0 -5 4 -4 9 4 6 9 11
10 15 2 4 -6 4 -16 0 -23 -4 -7 -3 -8 4 -4 7 4 12 17 12 29 1 21 1 21 14 4 11
-14 15 -15 19 -5 4 10 8 10 17 -2 9 -12 10 -10 5 9 -6 21 -4 23 13 19 13 -4
23 0 27 9 4 13 -1 15 -32 9 -21 -3 -69 -9 -108 -12 -61 -6 -72 -4 -88 13 -14
17 -15 25 -6 52 14 39 8 48 -15 22z"/>
<path d="M382 2473 c5 -28 66 -53 128 -52 90 1 105 15 24 22 -46 3 -83 13
-105 26 -42 26 -51 26 -47 4z"/>
<path d="M680 2477 c-19 -7 -44 -18 -55 -25 -38 -22 8 -13 60 12 54 26 51 33
-5 13z"/>
<path d="M2606 2436 c-22 -50 -48 -167 -27 -121 13 27 58 175 54 175 -2 0 -14
-24 -27 -54z"/>
<path d="M2662 2448 c-27 -52 -122 -277 -122 -289 0 -22 18 -6 23 21 4 16 15
47 25 67 68 135 90 182 95 211 4 17 5 32 4 32 -1 0 -12 -19 -25 -42z"/>
<path d="M196 2463 c-4 -12 -3 -31 3 -41 6 -11 8 -22 6 -26 -3 -3 0 -2 5 2 7
5 7 23 2 48 -7 34 -9 36 -16 17z"/>
<path d="M2115 2394 c-57 -65 -153 -155 -256 -239 -14 -11 -20 -17 -15 -12 6
4 18 7 28 7 10 0 26 8 36 18 10 9 49 44 87 76 82 69 113 102 125 134 6 12 26
32 45 43 19 12 35 27 35 35 0 27 -19 13 -85 -62z"/>
<path d="M1825 2359 c-33 -34 -51 -55 -40 -48 20 13 111 109 104 109 -3 0 -31
-27 -64 -61z"/>
<path d="M181 2383 c0 -7 -7 -13 -15 -13 -17 0 -25 -24 -22 -65 7 -76 5 -72
17 -52 6 10 8 24 6 31 -3 8 1 23 9 35 9 12 13 34 11 49 -2 15 -5 21 -6 15z"/>
<path d="M1665 2269 c-39 -60 -42 -78 -8 -42 27 28 52 83 38 83 -2 0 -16 -18
-30 -41z"/>
<path d="M803 2279 c-18 -12 -33 -25 -33 -31 0 -5 -4 -7 -9 -4 -4 3 -19 -7
-32 -22 l-24 -27 28 24 c27 24 27 24 27 3 0 -11 4 -24 10 -27 5 -3 7 0 4 9 -8
21 13 54 49 76 18 11 28 20 22 20 -5 0 -25 -10 -42 -21z"/>
<path d="M863 2277 c-15 -13 -37 -29 -48 -35 -15 -9 -16 -11 -4 -12 9 0 33 16
55 35 44 38 41 48 -3 12z"/>
<path d="M0 2252 c0 -35 3 -42 19 -42 10 0 21 -7 25 -15 3 -8 10 -15 15 -15
10 0 -30 83 -50 105 -5 5 -9 -8 -9 -33z"/>
<path d="M2894 2264 c3 -9 6 -18 6 -20 0 -12 21 -1 30 16 9 18 8 20 -16 20
-20 0 -25 -4 -20 -16z"/>
<path d="M611 2221 c-12 -12 -21 -29 -20 -38 0 -16 1 -15 8 2 8 19 8 19 20 0
12 -18 12 -18 7 -1 -4 10 -1 25 5 33 19 23 2 26 -20 4z"/>
<path d="M1610 2149 c-12 -40 -14 -42 -20 -19 -3 14 -9 20 -12 14 -4 -5 -3
-16 2 -24 5 -7 3 -21 -3 -31 -9 -14 -8 -21 2 -31 11 -11 13 -10 6 1 -4 7 -3
16 1 20 15 10 47 88 42 102 -2 6 -10 -8 -18 -32z"/>
<path d="M991 2120 c-59 -15 -68 -22 -111 -76 -49 -62 -103 -144 -96 -144 3 0
37 43 76 95 75 99 69 95 175 122 17 4 37 6 45 5 13 -3 13 -2 0 7 -8 6 -17 10
-20 9 -3 0 -34 -8 -69 -18z"/>
<path d="M1778 2103 c-20 -5 -25 -23 -5 -22 6 0 28 7 47 14 l35 13 -30 0 c-16
0 -38 -2 -47 -5z"/>
<path d="M2400 2099 c-19 -5 -52 -14 -72 -19 -22 -6 -56 -29 -82 -55 -38 -39
-59 -50 -88 -46 -12 1 -20 -80 -10 -107 6 -15 13 -36 17 -47 6 -19 7 -19 16
-2 9 16 7 49 -7 98 -3 11 3 19 20 23 14 3 46 28 72 56 36 39 58 52 102 65 32
8 71 22 87 30 29 13 29 14 5 13 -14 0 -41 -4 -60 -9z"/>
<path d="M2901 1993 c0 -50 3 -83 9 -83 12 0 12 56 1 120 -8 40 -9 37 -10 -37z"/>
<path d="M476 1995 c-11 -26 -16 -95 -8 -95 15 0 29 51 23 82 -6 29 -8 30 -15
13z"/>
<path d="M293 1965 c-9 -20 -8 -25 2 -25 7 0 16 -6 18 -12 8 -19 6 12 -1 39
l-7 22 -12 -24z"/>
<path d="M1430 1940 c-8 -5 -25 -10 -38 -10 -13 0 -21 -4 -17 -9 3 -5 -5 -12
-17 -14 -21 -4 -20 -4 4 -6 27 -1 88 28 88 42 0 9 -2 9 -20 -3z"/>
<path d="M2080 1885 c0 -6 -36 -10 -85 -11 -75 -1 -89 -4 -110 -24 -24 -23
-25 -28 -25 -161 0 -130 1 -139 23 -165 23 -27 24 -27 91 -15 59 10 71 10 92
-4 24 -15 44 -52 44 -78 0 -23 -56 -47 -108 -47 -27 0 -62 -5 -79 -10 -28 -10
-29 -13 -28 -68 0 -31 3 -59 6 -62 4 -3 12 -47 18 -99 9 -70 9 -96 1 -101 -8
-5 -7 -9 4 -13 10 -4 16 -18 16 -37 0 -17 4 -29 8 -26 13 8 34 -95 42 -204 8
-114 50 -254 86 -287 26 -24 21 -24 194 -8 l46 4 -2 -45 c-3 -58 17 -54 33 7
17 64 16 131 -3 157 -8 12 -12 22 -8 22 4 0 0 6 -11 13 -11 9 -15 19 -10 27 6
9 4 11 -5 5 -10 -6 -12 -4 -7 9 4 9 3 15 -2 12 -8 -5 -27 151 -26 211 1 12 -2
20 -6 18 -10 -7 -29 44 -23 62 4 13 3 14 -3 5 -7 -9 -14 -2 -26 23 -22 46 -23
167 -3 188 12 12 12 20 3 48 -19 52 -68 137 -83 143 -17 6 -18 38 -3 53 8 8 5
22 -12 53 -19 34 -21 43 -10 50 8 4 20 6 27 3 22 -8 24 14 4 38 l-19 24 -1
-27 c0 -25 -3 -27 -37 -26 -21 1 -73 -2 -115 -6 l-78 -8 0 155 0 155 31 6 c40
8 162 8 183 0 13 -5 16 -25 16 -119 0 -95 3 -114 16 -119 9 -4 18 -5 19 -4 28
35 35 147 10 168 -8 7 -15 21 -15 31 0 19 -69 103 -70 84z m48 -547 c20 -24
41 -133 39 -203 -1 -62 4 -81 41 -167 36 -85 42 -108 42 -170 0 -59 8 -95 39
-185 l39 -112 -41 -5 c-23 -3 -78 -7 -121 -8 l-79 -3 -32 97 c-22 68 -34 126
-38 190 -6 95 -29 202 -53 250 -8 15 -14 55 -14 90 0 35 -9 97 -19 138 -11 41
-16 78 -13 82 17 17 196 22 210 6z"/>
<path d="M2027 1313 c-2 -5 1 -38 7 -75 11 -71 15 -75 63 -62 29 8 20 24 -13
24 -20 0 -24 5 -24 29 0 63 -18 110 -33 84z"/>
<path d="M2056 1111 c-7 -52 8 -101 30 -101 9 0 10 9 2 37 -5 20 -7 54 -4 75
5 29 3 38 -8 38 -9 0 -16 -17 -20 -49z"/>
<path d="M1994 1064 c-13 -11 -15 -17 -6 -20 6 -3 10 -10 6 -15 -8 -14 10 -11
32 6 18 14 18 14 0 15 -15 0 -16 3 -6 15 16 20 -1 19 -26 -1z"/>
<path d="M2133 1003 c-10 -3 -9 -13 2 -40 24 -57 18 -60 -28 -15 -23 23 -50
42 -58 42 -14 0 -13 -8 2 -67 9 -37 22 -69 29 -71 13 -5 11 37 -5 83 -4 12 12
1 40 -27 45 -47 75 -61 75 -35 0 12 -40 138 -43 136 -1 0 -8 -3 -14 -6z"/>
<path d="M2159 843 c0 -4 0 -34 1 -66 1 -45 -2 -58 -15 -63 -24 -10 -35 13
-35 74 0 40 -3 52 -15 52 -14 0 -15 -10 -9 -62 8 -74 17 -88 55 -88 23 0 32 6
40 27 13 35 8 125 -8 131 -7 2 -13 0 -14 -5z"/>
<path d="M2230 667 c0 -13 6 -31 13 -40 10 -15 12 -14 11 13 -2 46 -3 50 -14
50 -5 0 -10 -10 -10 -23z"/>
<path d="M2180 655 c0 -30 -4 -31 -37 -5 -45 35 -62 22 -18 -15 l39 -34 -17
-35 c-14 -31 -15 -36 -2 -36 9 0 21 11 27 25 14 30 20 31 43 5 10 -11 25 -20
34 -20 10 0 4 11 -18 34 -29 30 -33 39 -27 70 6 29 4 36 -9 36 -9 0 -15 -9
-15 -25z"/>
<path d="M1083 1834 c-7 -6 -9 -15 -5 -20 4 -4 0 -5 -9 -2 -18 7 -61 -34 -56
-53 2 -8 2 -11 0 -6 -10 17 -23 5 -23 -22 0 -45 15 -45 35 -1 10 22 21 40 24
40 3 0 20 13 38 28 25 21 29 29 20 38 -9 8 -16 7 -24 -2z"/>
<path d="M1938 1823 l-28 -4 0 -97 c0 -53 3 -113 6 -133 l6 -36 42 8 c22 5 62
8 89 9 l47 0 0 124 c0 120 -1 124 -22 130 -25 6 -95 6 -140 -1z m98 -45 c3
-18 15 -48 25 -67 10 -19 16 -38 13 -43 -3 -5 0 -15 6 -23 9 -11 9 -15 1 -15
-6 0 -11 5 -11 10 0 6 -5 9 -12 8 -6 -2 -14 11 -18 28 -13 57 -19 67 -34 55
-7 -6 -15 -8 -18 -5 -13 13 -19 -60 -7 -82 13 -26 44 -32 52 -11 3 6 6 2 6
-10 1 -24 15 -31 26 -13 3 6 11 10 17 10 7 0 6 -5 -2 -15 -6 -8 -28 -14 -48
-15 -21 0 -50 0 -66 -1 -39 -1 -53 14 -38 43 26 53 42 103 42 133 0 38 6 45
36 45 17 0 24 -8 30 -32z"/>
<path d="M1942 1638 c-20 -20 -14 -38 13 -38 28 0 31 8 12 33 -10 14 -15 15
-25 5z"/>
<path d="M311 1754 c0 -11 -14 -30 -31 -42 -19 -15 -27 -28 -23 -38 5 -15 7
-15 15 0 5 9 30 30 55 45 31 20 41 31 33 36 -8 5 -18 1 -26 -9 -11 -16 -13
-16 -17 6 -4 20 -4 20 -6 2z"/>
<path d="M1290 1569 c-60 -60 -103 -130 -94 -154 5 -12 -27 -79 -47 -100 -5
-5 -9 -16 -9 -26 0 -9 -16 -36 -35 -60 -19 -24 -35 -48 -35 -53 0 -15 76 86
99 131 11 23 25 44 30 47 5 3 21 -10 36 -30 33 -43 42 -39 19 7 -32 62 -34 69
-34 90 0 30 17 58 70 114 42 45 77 95 67 95 -2 0 -32 -28 -67 -61z"/>
<path d="M1352 1542 c-23 -76 -22 -100 3 -132 7 -8 15 -49 19 -90 3 -41 13
-95 21 -120 l15 -45 -5 55 c-3 30 -9 81 -12 113 l-6 57 39 1 39 2 -40 6 c-55
8 -72 43 -56 115 18 80 21 105 13 110 -4 2 -18 -30 -30 -72z"/>
<path d="M2994 1425 c0 -77 2 -107 3 -67 2 40 2 103 0 140 -2 37 -3 4 -3 -73z"/>
<path d="M866 1531 c-17 -19 -17 -21 -3 -21 10 0 17 -2 17 -5 0 -17 -43 -80
-85 -124 -76 -80 -74 -101 2 -31 37 33 68 68 69 78 1 9 8 33 17 52 8 19 12 43
8 53 -6 17 -8 17 -25 -2z"/>
<path d="M1617 1503 c-4 -11 0 -67 8 -123 9 -56 14 -107 11 -115 -2 -7 2 -34
10 -61 18 -60 18 -84 -1 -84 -8 0 -15 -8 -15 -18 0 -11 -16 -36 -36 -56 l-36
-38 7 -99 c6 -97 6 -101 -19 -134 -14 -18 -26 -41 -26 -50 0 -9 -4 -13 -10
-10 -6 4 -10 -8 -10 -28 0 -37 -23 -102 -40 -112 -5 -3 -7 -17 -4 -29 7 -30
-23 -133 -42 -140 -11 -4 -13 -15 -8 -44 5 -32 2 -43 -20 -69 -19 -23 -30 -52
-38 -107 l-13 -76 -35 0 c-19 0 -97 18 -173 40 -96 28 -156 40 -195 39 -47 -1
-52 -3 -27 -9 17 -4 49 -8 73 -9 23 0 42 -5 42 -10 0 -4 24 -13 53 -20 28 -6
77 -18 107 -26 30 -9 79 -16 108 -17 l52 -2 0 -48 c0 -26 3 -48 8 -48 4 0 6
34 6 76 -2 89 17 192 37 205 8 5 15 4 17 -1 2 -6 10 -3 19 5 8 8 30 15 48 15
32 0 34 -2 31 -33 -2 -17 -1 -22 1 -10 5 25 69 43 161 43 56 1 56 1 27 14 -19
8 -38 10 -53 5 -29 -11 -83 -11 -100 -1 -12 8 -10 100 4 145 3 9 1 17 -4 17
-6 0 -16 -38 -22 -84 l-13 -84 -48 -4 c-40 -2 -48 0 -45 12 4 13 25 88 83 290
9 30 37 98 62 150 58 120 56 114 42 106 -7 -5 -11 9 -13 46 -2 80 1 95 22 120
11 13 29 34 39 48 l20 25 2 -60 c1 -33 4 -49 6 -35 7 33 -16 304 -28 354 -6
21 -14 66 -18 100 -5 45 -9 55 -14 39z"/>
<path d="M662 1477 c-23 -6 -41 -16 -39 -21 2 -6 -12 -19 -32 -28 -64 -31 8
-7 82 27 72 34 69 41 -11 22z"/>
<path d="M495 1363 c-27 -7 -93 -17 -145 -22 -52 -4 -80 -9 -62 -10 23 -1 35
-7 40 -22 7 -19 9 -19 21 -5 8 9 24 16 37 16 25 0 184 48 184 55 0 7 -19 4
-75 -12z"/>
<path d="M630 1295 c0 -5 8 -32 18 -58 l19 -49 21 36 21 35 -25 -9 c-22 -9
-27 -6 -39 23 -8 17 -14 28 -15 22z"/>
<path d="M734 1231 c-69 -95 -112 -191 -85 -191 7 0 13 17 25 70 1 3 11 19 24
37 12 17 22 35 22 40 0 13 44 53 58 53 13 0 16 19 4 36 -4 8 -22 -9 -48 -45z"/>
<path d="M1598 1266 c-10 -7 -18 -21 -18 -30 0 -9 -7 -19 -15 -22 -12 -5 -15
-25 -15 -92 l0 -86 30 40 c16 21 30 47 30 57 0 9 7 17 15 17 17 0 19 18 6 39
-7 11 -13 7 -25 -16 -15 -29 -46 -52 -46 -34 0 5 12 28 27 50 14 22 27 52 28
66 0 14 1 25 0 25 0 0 -8 -7 -17 -14z"/>
<path d="M199 1234 c-16 -19 -27 -234 -11 -234 9 0 21 -32 21 -53 0 -14 34
-36 55 -37 11 0 28 -8 40 -17 20 -18 20 -18 0 9 -10 15 -29 31 -41 37 -48 22
-56 51 -51 186 2 69 3 125 2 125 -1 0 -7 -7 -15 -16z"/>
<path d="M420 1228 c12 -10 120 -68 120 -64 0 10 -68 54 -95 60 -16 4 -28 6
-25 4z"/>
<path d="M2230 1172 c0 -6 9 -34 20 -62 11 -28 20 -73 20 -100 0 -36 4 -50 14
-50 20 0 9 81 -21 155 -27 64 -33 75 -33 57z"/>
<path d="M613 1147 c1 -7 -6 -11 -17 -10 -17 1 -17 0 -3 -15 15 -14 14 -18 -8
-44 -25 -29 -35 -88 -15 -88 6 0 10 18 10 41 0 28 4 39 12 37 7 -3 21 13 30
35 22 47 21 44 3 51 -8 3 -14 0 -12 -7z"/>
<path d="M1050 1121 c-7 -22 -11 -44 -8 -47 8 -7 31 63 26 77 -2 7 -10 -7 -18
-30z"/>
<path d="M743 1107 c-11 -12 -25 -31 -30 -42 -15 -31 -24 -85 -13 -85 13 0 32
39 25 51 -4 5 5 28 20 50 30 46 29 60 -2 26z"/>
<path d="M1201 1099 c-19 -31 -37 -131 -27 -148 3 -4 -11 -11 -32 -15 -39 -6
-108 -43 -99 -53 7 -6 116 34 134 49 7 6 13 26 13 45 0 32 2 35 25 31 26 -5
35 6 11 15 -17 7 -26 63 -12 77 19 19 44 11 51 -17 15 -58 16 -83 4 -83 -8 0
-8 -5 2 -16 7 -9 12 -31 10 -50 -2 -24 3 -36 18 -46 12 -7 21 -18 21 -25 0 -7
-25 -42 -55 -78 -30 -35 -55 -72 -55 -81 0 -10 -6 -14 -14 -11 -13 5 -36 -10
-36 -23 0 -3 9 -6 20 -7 22 -2 41 20 106 122 25 38 46 71 48 73 10 9 46 -21
44 -36 -2 -12 4 -17 22 -17 17 0 24 -5 23 -15 -2 -8 11 -23 27 -32 17 -9 30
-14 30 -9 0 16 -126 132 -159 147 -23 10 -25 16 -22 66 4 92 -25 168 -65 168
-8 0 -23 -14 -33 -31z"/>
<path d="M1013 1083 c-2 -24 -42 -173 -53 -198 -5 -11 -21 -49 -36 -85 -27
-65 -75 -140 -241 -380 -48 -69 -79 -119 -70 -111 23 18 169 217 191 259 23
44 30 41 9 -5 -18 -40 -112 -175 -196 -282 -46 -57 -51 -61 -59 -42 -4 11 -14
21 -22 21 -28 0 -74 -50 -90 -98 -22 -63 -33 -162 -18 -162 12 0 16 13 27 85
13 80 69 175 91 153 2 -3 -7 -25 -20 -49 -26 -47 -41 -92 -51 -152 -5 -29 -3
-37 10 -37 8 0 15 3 15 8 2 30 13 89 19 97 4 6 14 30 21 54 19 61 39 65 125
26 38 -17 93 -40 120 -50 28 -10 58 -25 68 -33 22 -20 22 -6 -2 23 -10 14 -22
20 -27 15 -5 -5 -27 0 -54 12 -25 12 -47 22 -50 22 -3 1 -28 12 -57 26 -59 28
-61 42 -14 95 40 45 91 113 91 121 0 4 11 21 24 39 66 87 166 274 190 357 30
104 47 83 57 -72 4 -58 9 -116 12 -130 2 -14 0 -38 -5 -55 -5 -16 -13 -52 -19
-80 -5 -28 -20 -60 -34 -75 -13 -14 -31 -43 -41 -65 -9 -22 -19 -42 -23 -45
-10 -7 -53 -80 -48 -80 8 0 87 119 87 130 0 6 42 50 93 98 175 166 202 193
182 184 -11 -6 -64 -52 -118 -104 -53 -51 -97 -92 -97 -91 0 1 9 42 21 90 17
73 20 109 16 213 -3 79 -11 138 -20 160 -14 33 -14 42 3 104 14 49 17 74 9 87
-12 23 -14 24 -16 2z"/>
<path d="M1066 1065 c-23 -35 -21 -36 25 -16 61 28 70 41 27 41 -27 0 -40 -6
-52 -25z"/>
<path d="M945 1009 c-4 -21 -11 -39 -16 -39 -5 0 -28 -17 -52 -39 -26 -24 -56
-41 -80 -45 -45 -8 -149 -47 -143 -53 8 -8 116 18 116 27 0 5 7 7 15 4 18 -7
50 12 107 64 l41 37 -37 -74 c-34 -67 -74 -129 -132 -207 -13 -16 -33 -52 -45
-80 -12 -27 -27 -52 -33 -56 -6 -4 -164 -8 -351 -9 -187 -1 -327 -4 -310 -8
17 -4 152 -8 300 -9 149 -1 283 -2 299 -2 33 0 34 1 -19 -118 -44 -98 -41
-133 3 -46 76 151 233 416 272 461 10 12 24 40 30 63 6 23 18 44 26 47 7 3 14
13 14 23 0 11 4 21 9 24 15 9 19 65 5 70 -8 3 -15 -9 -19 -35z"/>
<path d="M613 995 c-15 -13 -23 -25 -16 -25 7 0 25 11 40 25 15 13 23 25 16
25 -7 0 -25 -11 -40 -25z"/>
<path d="M1121 844 c-63 -33 -69 -42 -39 -53 39 -15 40 -26 7 -51 l-31 -22 23
-22 c35 -33 90 -15 88 28 -1 19 -2 19 -8 -3 -4 -14 -12 -26 -19 -29 -14 -4
-16 34 -2 43 6 4 2 15 -10 27 -27 30 -25 42 13 77 37 36 36 36 -22 5z"/>
<path d="M1580 779 c0 -8 15 -20 33 -28 17 -8 42 -23 55 -34 19 -18 22 -18 22
-4 0 9 -4 17 -10 17 -5 0 -18 10 -30 22 -11 12 -23 18 -27 15 -3 -4 -15 0 -25
10 -14 13 -18 13 -18 2z"/>
<path d="M50 756 c-29 -9 -10 -11 121 -14 140 -2 158 -4 174 -22 15 -16 15
-22 5 -35 -10 -12 -42 -15 -177 -15 -159 0 -164 1 -158 20 3 11 2 28 -4 37 -9
15 -10 12 -11 -18 0 -47 15 -59 76 -59 29 0 56 -4 59 -10 4 -6 -14 -10 -46
-10 -29 0 -50 -2 -48 -5 8 -7 123 -13 154 -7 25 5 26 6 10 12 -11 4 -25 3 -32
-2 -12 -10 -30 8 -18 20 9 10 79 2 86 -10 4 -7 27 -4 64 7 51 14 61 15 94 2
31 -13 39 -13 56 -1 10 8 13 14 7 14 -7 0 -12 5 -12 10 0 6 9 10 20 10 11 0
20 -4 20 -8 0 -5 57 -8 128 -8 l127 1 3 26 c2 14 -3 30 -10 36 -14 11 -114 23
-123 15 -2 -3 -37 -6 -77 -7 -53 -1 -78 3 -91 14 -14 12 -24 13 -46 4 -22 -8
-37 -7 -62 4 -40 17 -235 16 -289 -1z m390 -51 c0 -28 -4 -35 -20 -35 -16 0
-20 7 -20 35 0 28 4 35 20 35 16 0 20 -7 20 -35z m201 8 c1 -16 3 -21 6 -11 3
12 15 17 44 16 43 0 57 -12 40 -31 -7 -9 -26 -11 -58 -8 -43 5 -48 9 -51 34
-2 15 1 27 7 27 6 0 12 -12 12 -27z m-31 -3 c0 -3 -5 -12 -11 -20 -8 -11 -12
-12 -16 -3 -3 10 -8 9 -20 -2 -15 -15 -33 -12 -33 6 0 6 5 7 12 3 7 -4 8 -3 4
4 -10 17 -36 15 -36 -3 0 -8 -4 -15 -10 -15 -5 0 -10 9 -10 20 0 19 5 21 60
18 33 -2 60 -5 60 -8z"/>
<path d="M2310 756 c0 -8 79 -183 129 -285 31 -65 38 -88 30 -102 -17 -32 -27
-22 -55 56 -16 41 -30 72 -32 70 -4 -4 20 -77 45 -132 24 -56 43 -116 39 -121
-6 -5 -63 83 -72 110 -3 11 -11 17 -17 15 -22 -7 -19 -36 6 -69 63 -83 107
-215 78 -233 -6 -3 -16 -15 -21 -26 -20 -37 24 -21 49 18 l24 37 -17 61 c-10
33 -19 74 -21 90 -2 17 -8 43 -14 58 -9 24 -8 33 8 53 11 14 17 32 14 40 -4
11 0 12 18 6 32 -11 73 -94 101 -205 l23 -88 -21 -37 c-12 -20 -31 -42 -43
-48 -24 -13 -17 -24 15 -24 31 0 74 75 74 131 0 81 -60 238 -106 279 -19 16
-38 30 -43 30 -14 0 -41 64 -31 74 5 5 125 11 267 14 142 2 260 6 262 8 2 2
-122 4 -277 4 -154 0 -287 3 -296 6 -9 3 -16 16 -16 28 0 12 -4 26 -8 32 -5 5
-17 34 -26 64 -10 31 -29 63 -42 73 -13 10 -24 16 -24 13z"/>
<path d="M1274 709 c1 -18 -5 -25 -21 -27 -13 -2 -23 -7 -23 -12 0 -5 7 -6 17
-3 12 5 14 3 8 -8 -7 -11 -5 -11 10 1 10 8 16 10 12 4 -4 -7 3 -14 19 -18 19
-5 31 -1 45 15 16 18 20 19 25 6 3 -8 12 -18 20 -21 11 -4 12 -2 1 15 -10 17
-9 22 8 35 19 15 19 15 -6 9 -17 -4 -30 -1 -38 9 -12 14 -16 14 -34 1 -18 -13
-22 -12 -32 2 -10 14 -12 13 -11 -8z m69 -5 c8 -9 -11 -44 -23 -44 -6 0 -10 8
-10 18 0 27 18 41 33 26z"/>
<path d="M171 707 c-1 -13 6 -17 29 -15 17 1 30 6 30 11 0 5 -11 7 -25 5 -13
-3 -26 0 -29 6 -2 6 -5 3 -5 -7z"/>
<path d="M1432 680 c-12 -19 -22 -40 -22 -47 0 -6 -3 -20 -6 -30 -6 -15 -5
-16 7 -5 8 7 14 16 14 20 0 4 9 19 19 34 10 15 16 35 14 45 -3 14 -9 11 -26
-17z"/>
<path d="M1556 618 c-4 -35 -9 -78 -13 -95 -4 -28 -2 -33 14 -33 11 0 20 7 20
15 0 8 -6 15 -14 15 -10 0 -11 5 -4 19 6 10 12 37 13 60 3 44 19 52 59 31 10
-6 19 -8 19 -6 0 6 -72 56 -81 56 -4 0 -9 -28 -13 -62z"/>
<path d="M1083 644 c-19 -20 -16 -25 12 -18 28 7 30 2 14 -29 -9 -18 -6 -16
20 7 33 32 41 52 15 42 -8 -3 -23 -2 -32 3 -11 6 -21 4 -29 -5z"/>
<path d="M1191 389 c-14 -5 -62 -13 -109 -18 -46 -5 -88 -13 -93 -18 -5 -5 6
-7 29 -5 34 4 36 3 18 -11 -12 -8 19 -2 75 15 52 17 98 34 104 39 11 11 7 11
-24 -2z"/>
<path d="M1741 189 c0 -53 -3 -118 -6 -145 -4 -47 -4 -48 6 -14 15 49 17 93 9
180 l-7 75 -2 -96z"/>
</g>
</svg>
